<svg width="61" height="26" viewBox="0 0 61 26" fill="none" xmlns="http://www.w3.org/2000/svg">
<path d="M0.344 20.704V1.96H6.776C13.616 1.96 16.904 5.008 16.904 11.248C16.904 13.336 16.544 15.088 15.848 16.552C14.408 19.36 11.864 20.776 8.432 20.704L5.48 16.912H5.432V20.704H0.344ZM5.432 16.312H7.136C10.136 16.312 11.816 14.56 11.816 11.32C11.816 8.128 10.208 6.352 7.328 6.352H5.432V16.312ZM19.3518 20.704V1.96H25.7838C32.6238 1.96 35.9118 5.008 35.9118 11.248C35.9118 13.336 35.5518 15.088 34.8558 16.552C33.4158 19.36 30.8718 20.776 27.4398 20.704L24.4878 16.912H24.4398V20.704H19.3518ZM24.4398 16.312H26.1438C29.1438 16.312 30.8238 14.56 30.8238 11.32C30.8238 8.128 29.2158 6.352 26.3358 6.352H24.4398V16.312ZM38.9596 20.704V6.952H43.5676V20.704H38.9596ZM38.5516 3.376C38.5516 1.936 39.7036 0.879999 41.2636 0.879999C42.8236 0.879999 43.9756 1.936 43.9756 3.376C43.9756 4.816 42.8236 5.872 41.2636 5.872C39.7036 5.872 38.5516 4.816 38.5516 3.376ZM46.604 25.72V6.952H50.852L51.092 7.744C52.172 6.88 53.516 6.376 54.86 6.376C58.484 6.376 60.908 8.968 60.908 13.648C60.908 15.208 60.62 16.576 60.068 17.752C58.94 19.936 56.972 21.16 54.74 21.16C54.428 21.16 54.116 21.136 53.804 21.088L51.404 17.632H51.212V25.72H46.604ZM51.212 16.264C51.86 17.032 52.604 17.368 53.66 17.368C55.316 17.368 56.396 16.024 56.396 13.72C56.396 11.488 55.484 10.264 53.924 10.264C52.844 10.264 51.932 10.744 51.212 11.704V16.264Z" fill="#FF595F"/>
</svg>
