<svg width="14" height="20" viewBox="0 0 14 20" fill="none" xmlns="http://www.w3.org/2000/svg">
<path d="M7 19.5C6.79442 19.5 6.60426 19.4414 6.42951 19.3241C6.25477 19.2068 6.12628 19.0406 6.04405 18.8256C5.57122 17.4769 5.00073 16.3578 4.3326 15.4684C3.66446 14.579 3.00147 13.7335 2.34361 12.9321C1.70631 12.1307 1.15639 11.295 0.693833 10.4252C0.231278 9.5553 0 8.46554 0 7.15587C0 5.25977 0.668135 3.67644 2.00441 2.40586C3.34068 1.13529 5.00587 0.5 7 0.5C8.99413 0.5 10.6593 1.13529 11.9956 2.40586C13.3319 3.67644 14 5.25977 14 7.15587C14 8.46554 13.7739 9.5553 13.3216 10.4252C12.8693 11.295 12.3245 12.1307 11.6872 12.9321C11.0499 13.7335 10.3921 14.5741 9.71366 15.4537C9.03524 16.3333 8.45962 17.4475 7.98678 18.7963C7.90455 19.0113 7.77606 19.1824 7.60132 19.3094C7.42658 19.4365 7.22614 19.5 7 19.5ZM7 9.53086C7.69897 9.53086 8.29001 9.30118 8.77313 8.84182C9.25624 8.38246 9.4978 7.82047 9.4978 7.15587C9.4978 6.49126 9.25624 5.92438 8.77313 5.45525C8.29001 4.98611 7.69897 4.75154 7 4.75154C6.30103 4.75154 5.70998 4.98611 5.22687 5.45525C4.74376 5.92438 4.5022 6.49126 4.5022 7.15587C4.5022 7.82047 4.74376 8.38246 5.22687 8.84182C5.70998 9.30118 6.30103 9.53086 7 9.53086Z" fill="white"/>
</svg>
