<svg width="14" height="12" viewBox="0 0 14 12" fill="none" xmlns="http://www.w3.org/2000/svg">
<g id="_&#234;&#178;&#169;&#235;&#166;&#172;_&#235;&#170;&#168;&#235;&#147;&#156;" clip-path="url(#clip0_19_306)">
<path id="Vector" d="M4.7104 0.5C4.66247 0.504869 4.61453 0.509739 4.56659 0.514608C5.35629 0.560868 6.00217 0.884684 6.49415 1.47632C6.98613 2.07039 7.17031 2.75454 7.03911 3.50443C6.807 4.8216 5.60354 5.7054 4.29159 5.6421C2.90647 5.57636 1.82412 4.51483 1.756 3.20983C1.71815 2.50376 1.95027 1.88048 2.43972 1.35702C2.92918 0.835989 3.54479 0.553564 4.26131 0.514608C4.23608 0.512174 4.19319 0.504869 4.1503 0.5C4.337 0.5 4.5237 0.5 4.71293 0.5H4.7104Z" fill="#3A3A3A"/>
<path id="Vector_2" d="M14 9.82006C13.9949 9.84197 13.9874 9.86388 13.9823 9.8858C13.9268 10.0854 13.7401 10.2267 13.5231 10.2267C12.6149 10.2267 11.7066 10.2267 10.8008 10.2267C10.7479 10.2267 10.6949 10.2267 10.6394 10.2267C10.6167 10.2267 10.604 10.2218 10.6015 10.195C10.5511 9.85171 10.4577 9.51816 10.3391 9.1919C10.2357 8.91191 10.1121 8.6441 9.96573 8.38115C9.73614 7.96481 9.45357 7.58256 9.11549 7.23927C8.99186 7.1151 8.86067 6.9958 8.73199 6.87163C9.43843 6.48208 10.2004 6.31652 11.0153 6.43825C11.8277 6.55755 12.5215 6.91302 13.0766 7.50222C13.6291 8.08898 13.9344 8.78044 13.9874 9.57415C13.9924 9.54007 13.9949 9.50598 14 9.47433C14 9.58876 14 9.70319 14 9.82006Z" fill="#3A3A3A"/>
<path id="Vector_3" d="M4.86933 11.5C3.41862 11.5 1.96791 11.5 0.517197 11.5C0.345635 11.5 0.204348 11.4489 0.0958602 11.315C0.0226939 11.2249 -0.00253591 11.1202 -1.29344e-05 11.0082C0.00251004 10.8816 0.010079 10.7525 0.0226939 10.6259C0.0428777 10.3971 0.0807223 10.1731 0.136228 9.95152C0.244716 9.53032 0.403663 9.12616 0.628208 8.74878C0.812386 8.43957 1.02684 8.15228 1.27409 7.88933C1.84428 7.28552 2.53558 6.86188 3.33536 6.59893C3.62298 6.50398 3.91565 6.43824 4.21588 6.39929C4.58171 6.35303 4.95007 6.33842 5.31842 6.37738C5.82302 6.4285 6.30743 6.54781 6.7767 6.73528C7.19804 6.90327 7.57901 7.137 7.93475 7.40969C8.20218 7.61421 8.43682 7.85281 8.65127 8.10845C9.02468 8.554 9.29968 9.05068 9.48638 9.59362C9.59487 9.91257 9.67308 10.2388 9.70588 10.5724C9.72354 10.7355 9.72859 10.9011 9.72859 11.0666C9.72859 11.276 9.53936 11.4708 9.32491 11.4951C9.28454 11.5 9.24165 11.5024 9.20128 11.5024C7.75562 11.5024 6.31248 11.5024 4.86681 11.5024L4.86933 11.5Z" fill="#3A3A3A"/>
<path id="Vector_4" d="M12.4837 3.96215C12.4685 5.05046 11.5779 5.8807 10.4779 5.87339C9.40061 5.86609 8.49234 5.00664 8.52009 3.90615C8.54532 2.8641 9.45359 2.0436 10.5107 2.05091C11.6107 2.05821 12.4761 2.91036 12.4862 3.96458L12.4837 3.96215Z" fill="#3A3A3A"/>
</g>
<defs>
<clipPath id="clip0_19_306">
<rect width="14" height="11" fill="white" transform="translate(0 0.5)"/>
</clipPath>
</defs>
</svg>
