<svg xmlns="http://www.w3.org/2000/svg" width="11" height="15" viewBox="0 0 11 15" fill="none">
<path d="M5.5 15C5.33847 15 5.18906 14.9537 5.05176 14.8611C4.91446 14.7685 4.81351 14.6373 4.7489 14.4676C4.37739 13.4028 3.92915 12.5193 3.40418 11.8171C2.87922 11.115 2.3583 10.4475 1.84141 9.81482C1.34068 9.1821 0.90859 8.52238 0.545154 7.83565C0.181718 7.14892 0 6.28858 0 5.25463C0 3.75772 0.524963 2.50772 1.57489 1.50463C2.62482 0.501543 3.93319 0 5.5 0C7.06681 0 8.37518 0.501543 9.42511 1.50463C10.475 2.50772 11 3.75772 11 5.25463C11 6.28858 10.8223 7.14892 10.467 7.83565C10.1116 8.52238 9.68355 9.1821 9.18282 9.81482C8.68208 10.4475 8.1652 11.1111 7.63216 11.8056C7.09912 12.5 6.64684 13.3796 6.27533 14.4444C6.21072 14.6142 6.10976 14.7492 5.97247 14.8495C5.83517 14.9498 5.67768 15 5.5 15ZM5.5 7.12963C6.04919 7.12963 6.51358 6.9483 6.89317 6.58565C7.27276 6.22299 7.46255 5.77932 7.46255 5.25463C7.46255 4.72994 7.27276 4.28241 6.89317 3.91204C6.51358 3.54167 6.04919 3.35648 5.5 3.35648C4.95081 3.35648 4.48642 3.54167 4.10683 3.91204C3.72724 4.28241 3.53744 4.72994 3.53744 5.25463C3.53744 5.77932 3.72724 6.22299 4.10683 6.58565C4.48642 6.9483 4.95081 7.12963 5.5 7.12963Z" fill="#3A3A3A"/>
</svg>