<svg xmlns="http://www.w3.org/2000/svg" width="10" height="9" viewBox="0 0 10 9" fill="none">
<g clip-path="url(#clip0_35_651)">
<path d="M3.3646 0.5C3.33036 0.503541 3.29612 0.507083 3.26188 0.510624C3.82594 0.544267 4.28729 0.77977 4.6387 1.21005C4.99012 1.6421 5.12167 2.13966 5.02796 2.68504C4.86217 3.64298 4.00255 4.28575 3.06545 4.23971C2.07608 4.1919 1.30297 3.41988 1.25431 2.47078C1.22728 1.95728 1.39307 1.50398 1.74269 1.12328C2.0923 0.744356 2.53202 0.538955 3.04382 0.510624C3.0258 0.508853 2.99516 0.503541 2.96453 0.5C3.09789 0.5 3.23124 0.5 3.3664 0.5H3.3646Z" fill="#FF595F"/>
<path d="M10 7.27825C9.99642 7.29418 9.99101 7.31012 9.98741 7.32606C9.94776 7.47125 9.8144 7.57395 9.65942 7.57395C9.01065 7.57395 8.36189 7.57395 7.71493 7.57395C7.67708 7.57395 7.63924 7.57395 7.59959 7.57395C7.58337 7.57395 7.57436 7.57041 7.57256 7.55093C7.53652 7.30127 7.46984 7.05868 7.38514 6.82141C7.31125 6.61778 7.22295 6.423 7.11842 6.23177C6.95443 5.92898 6.75259 5.65098 6.51111 5.40131C6.4228 5.311 6.32909 5.22424 6.23718 5.13393C6.74178 4.85062 7.28602 4.73022 7.86811 4.81875C8.44839 4.90552 8.94398 5.16404 9.34044 5.59254C9.73511 6.01928 9.95317 6.52216 9.99101 7.09941C9.99462 7.07462 9.99642 7.04983 10 7.02681C10 7.11003 10 7.19325 10 7.27825Z" fill="#FF595F"/>
<path d="M3.4781 8.49998C2.44188 8.49998 1.40566 8.49998 0.369435 8.49998C0.246891 8.49998 0.145972 8.4628 0.0684803 8.36541C0.0162186 8.29989 -0.00180265 8.22375 -5.19554e-07 8.1423C0.00180161 8.05022 0.00720799 7.95638 0.0162186 7.8643C0.0306356 7.69786 0.0576675 7.53495 0.0973143 7.37382C0.174806 7.06749 0.28834 6.77355 0.448729 6.4991C0.580284 6.27422 0.733465 6.06528 0.910073 5.87404C1.31735 5.43491 1.81114 5.12681 2.38241 4.93557C2.58785 4.86651 2.7969 4.81871 3.01135 4.79037C3.27266 4.75673 3.53577 4.74611 3.79888 4.77444C4.15931 4.81162 4.50531 4.89839 4.84051 5.03473C5.14147 5.15691 5.41359 5.32689 5.66769 5.52521C5.85871 5.67395 6.02631 5.84748 6.17949 6.0334C6.4462 6.35744 6.64264 6.71866 6.77599 7.11353C6.85348 7.34549 6.90935 7.58276 6.93278 7.82535C6.94539 7.94398 6.949 8.06439 6.949 8.1848C6.949 8.33708 6.81384 8.47873 6.66066 8.49644C6.63182 8.49998 6.60119 8.50175 6.57235 8.50175C5.53974 8.50175 4.50892 8.50175 3.4763 8.50175L3.4781 8.49998Z" fill="#FF595F"/>
<path d="M8.91691 3.0179C8.9061 3.8094 8.26995 4.41321 7.48422 4.40789C6.71471 4.40258 6.06595 3.77753 6.08577 2.97717C6.10379 2.21932 6.75256 1.62259 7.50765 1.6279C8.29337 1.63322 8.9115 2.25296 8.91871 3.01967L8.91691 3.0179Z" fill="#FF595F"/>
</g>
<defs>
<clipPath id="clip0_35_651">
<rect width="10" height="8" fill="white" transform="translate(0 0.5)"/>
</clipPath>
</defs>
</svg>