<svg xmlns="http://www.w3.org/2000/svg" width="32" height="25" viewBox="0 0 32 25" fill="none">
<g clip-path="url(#clip0_33_610)">
<path d="M3.55556 0C11.853 0 20.1504 0 28.4479 0C28.4926 0.0199177 28.5373 0.0497942 28.5854 0.059753C30.5592 0.411632 31.9931 2.02828 31.9931 3.95366C32 9.65011 32 15.3466 31.9931 21.0397C31.9931 23.2406 30.1466 24.9967 27.8702 24.9967C19.9579 24.9967 12.0456 24.9967 4.13325 24.9967C2.2695 24.9967 0.670535 23.8249 0.161616 22.0953C0.0997206 21.8829 0.0550183 21.6638 0 21.4447C0 15.4827 0 9.51733 0 3.55531C0.0206318 3.49887 0.048141 3.44244 0.0584569 3.38268C0.33011 1.75276 1.50956 0.507901 3.17043 0.109547C3.3011 0.0796707 3.42833 0.0365157 3.55556 0ZM30.2532 18.0388C30.2876 18.0155 30.3219 17.9956 30.3529 17.9724C30.3529 17.9126 30.3529 17.8529 30.3529 17.7931C30.3529 13.1789 30.3529 8.5646 30.3529 3.95034C30.3529 2.62913 29.2594 1.58677 27.8839 1.58346C19.9682 1.58014 12.0559 1.58014 4.14012 1.58346C2.72684 1.58346 1.65055 2.62913 1.64711 3.99017C1.64367 7.59527 1.64711 11.1971 1.64711 14.8022C1.64711 14.8851 1.66086 14.9715 1.66774 15.0544C1.69525 15.0677 1.71932 15.081 1.74683 15.0943C1.82592 14.998 1.89469 14.8918 1.9841 14.8055C3.94412 12.9133 5.90415 11.0244 7.86761 9.13557C9.09177 7.95711 10.787 7.99031 11.9527 9.21524C13.139 10.4634 14.3254 11.7149 15.5117 12.9631C16.447 13.949 17.3858 14.9316 18.3727 15.9673C18.4518 15.8644 18.5136 15.7648 18.5927 15.6852C19.3939 14.8453 20.1986 14.0021 21.0067 13.1689C22.2652 11.8676 23.9054 11.8344 25.2087 13.0926C26.8248 14.6494 28.441 16.213 30.0503 17.7765C30.1294 17.8562 30.1878 17.9558 30.2566 18.0454L30.2532 18.0388ZM19.4627 17.0927C19.5521 17.1923 19.6243 17.2819 19.7 17.3616C20.343 18.0388 20.9929 18.7127 21.6291 19.3965C21.9901 19.7816 21.9695 20.2131 21.6015 20.5351C21.2302 20.8604 20.7935 20.8372 20.4221 20.4654C20.3121 20.3559 20.2089 20.2397 20.1023 20.1268C16.9938 16.8537 13.8818 13.5772 10.7698 10.3041C10.2162 9.71983 9.58693 9.70987 9.00924 10.2676C6.61939 12.5714 4.23297 14.8719 1.84999 17.1823C1.73995 17.2885 1.65399 17.4744 1.65399 17.6238C1.63679 18.7459 1.64367 19.8712 1.64711 20.9932C1.65055 22.3609 2.71997 23.4099 4.12637 23.4132C12.0421 23.4165 19.9579 23.4132 27.8736 23.4099C28.1522 23.4099 28.4479 23.3634 28.7127 23.2738C29.8921 22.8821 30.6727 21.4713 30.346 20.3492C30.3288 20.2862 30.2704 20.2297 30.2188 20.1799C28.1178 18.1483 26.0202 16.1134 23.9158 14.0884C23.424 13.6137 22.7672 13.6469 22.2927 14.1415C21.6944 14.7623 21.0995 15.3864 20.5046 16.0072C20.1608 16.3657 19.8169 16.7242 19.4627 17.0927Z" fill="#3A3A3A"/>
<path d="M18.0151 10.3008C16.2132 10.2908 14.9169 9.00279 14.9237 7.22679C14.9306 5.53711 16.2717 4.24578 18.0254 4.23914C19.7997 4.23582 21.1546 5.57363 21.1408 7.3131C21.127 9.02934 19.7894 10.3074 18.0185 10.3008H18.0151ZM18.0391 8.7173C18.9126 8.71398 19.5109 8.11313 19.504 7.25003C19.4971 6.42677 18.861 5.81596 18.0185 5.81928C17.1657 5.8226 16.5468 6.45332 16.5571 7.29982C16.5674 8.13969 17.1726 8.7173 18.0391 8.71398V8.7173Z" fill="#3A3A3A"/>
</g>
<defs>
<clipPath id="clip0_33_610">
<rect width="32" height="25" fill="white"/>
</clipPath>
</defs>
</svg>